# xmcd
#
# Track frame offsets:
#	150
#	18150
#	43575
#	61725
#	96750
#	117450
#	137475
#	155925
#	172050
#	188775
#	212175
#	230175
#	244625
#
# Disc length: 3599 seconds
#
# Revision: 0
# Processed by: cddbd v1.4PL0 Copyright (c) Steve Scherf et al.
# Submitted via: dBpowerAMP V4.0
#
DISCID=b70e0d0d
DTITLE=Ben Harper - Burn To Shine
DYEAR=1900
DGENRE=
TTITLE0=Alone
TTITLE1=The Woman In You
TTITLE2=Less
TTITLE3=Two Hands Of A prayer
TTITLE4=Please Bleed
TTITLE5=Suzie Blue
TTITLE6=Steal My Kisses
TTITLE7=Burn To Shine
TTITLE8=Show me A Little Shame
TTITLE9=Forgiven
TTITLE10=Beloved One
TTITLE11=In The Lord's Arms
TTITLE12=Sexual Healing
EXTD=
EXTT0=
EXTT1=
EXTT2=
EXTT3=
EXTT4=
EXTT5=
EXTT6=
EXTT7=
EXTT8=
EXTT9=
EXTT10=
EXTT11=
EXTT12=
PLAYORDER=
